STARTFONT 2.1
FONT -WRI-Mathematica1-Bold-R-Normal--14-140-75-75-p-80-Adobe-FontSpecific
SIZE 14 75 75
FONTBOUNDINGBOX 24 16 -2 -3
STARTPROPERTIES 16
FOUNDRY "WRI"
FAMILY_NAME "Mathematica1"
WEIGHT_NAME "Bold"
SLANT "R"
SETWIDTH_NAME "Normal"
PIXEL_SIZE 14
POINT_SIZE 140
RESOLUTION_X 75
RESOLUTION_Y 75
SPACING "p"
AVERAGE_WIDTH 80
CHARSET_REGISTRY "Adobe"
CHARSET_ENCODING "FontSpecific"
FONT_DESCENT 3
FONT_ASCENT 13
DEFAULT_CHAR 32
ENDPROPERTIES
CHARS 224
STARTCHAR Space
ENCODING 32
SWIDTH 189 0
DWIDTH 3 0
BBX 0 0 0 0
BITMAP
ENDCHAR
STARTCHAR Exclamation
ENCODING 33
SWIDTH 333 0
DWIDTH 5 0
BBX 2 10 1 0
BITMAP
c0
c0
c0
c0
c0
c0
c0
00
c0
c0
ENDCHAR
STARTCHAR ForAll
ENCODING 34
SWIDTH 627 0
DWIDTH 9 0
BBX 9 10 0 0
BITMAP
8180
4300
4300
4700
3e00
2600
2c00
1c00
1c00
0800
ENDCHAR
STARTCHAR NumberSign
ENCODING 35
SWIDTH 701 0
DWIDTH 10 0
BBX 8 10 1 0
BITMAP
12
12
12
7f
24
24
ff
48
48
48
ENDCHAR
STARTCHAR Exists
ENCODING 36
SWIDTH 627 0
DWIDTH 9 0
BBX 7 10 1 0
BITMAP
fe
06
06
06
7e
06
06
06
06
fe
ENDCHAR
STARTCHAR Percent
ENCODING 37
SWIDTH 927 0
DWIDTH 13 0
BBX 11 10 1 0
BITMAP
3180
6900
cb00
d200
6400
0cc0
09a0
1b20
1340
3180
ENDCHAR
STARTCHAR Ampersand
ENCODING 38
SWIDTH 833 0
DWIDTH 12 0
BBX 10 10 1 0
BITMAP
1c00
3200
3200
3c00
39c0
5c80
cd00
c600
e740
7b80
ENDCHAR
STARTCHAR SmallMember
ENCODING 39
SWIDTH 501 0
DWIDTH 7 0
BBX 5 7 1 0
BITMAP
f0
38
18
78
18
30
e0
ENDCHAR
STARTCHAR LParen
ENCODING 40
SWIDTH 349 0
DWIDTH 5 0
BBX 4 12 0 -2
BITMAP
10
20
60
40
c0
c0
c0
c0
40
60
20
10
ENDCHAR
STARTCHAR RParen
ENCODING 41
SWIDTH 349 0
DWIDTH 5 0
BBX 4 12 1 -2
BITMAP
80
40
60
20
30
30
30
30
20
60
40
80
ENDCHAR
STARTCHAR Star
ENCODING 42
SWIDTH 507 0
DWIDTH 7 0
BBX 5 6 1 0
BITMAP
20
a8
70
70
a8
20
ENDCHAR
STARTCHAR Plus
ENCODING 43
SWIDTH 683 0
DWIDTH 10 0
BBX 7 7 1 0
BITMAP
10
10
10
fe
10
10
10
ENDCHAR
STARTCHAR Comma
ENCODING 44
SWIDTH 250 0
DWIDTH 4 0
BBX 3 4 0 -2
BITMAP
60
60
20
c0
ENDCHAR
STARTCHAR Minus
ENCODING 45
SWIDTH 676 0
DWIDTH 9 0
BBX 8 1 1 3
BITMAP
ff
ENDCHAR
STARTCHAR Period
ENCODING 46
SWIDTH 250 0
DWIDTH 4 0
BBX 2 2 1 0
BITMAP
c0
c0
ENDCHAR
STARTCHAR Slash
ENCODING 47
SWIDTH 358 0
DWIDTH 5 0
BBX 5 12 0 -2
BITMAP
08
18
10
10
30
20
20
60
40
40
c0
80
ENDCHAR
STARTCHAR Zero
ENCODING 48
SWIDTH 500 0
DWIDTH 7 0
BBX 6 10 0 0
BITMAP
30
48
cc
cc
cc
cc
cc
cc
48
30
ENDCHAR
STARTCHAR One
ENCODING 49
SWIDTH 500 0
DWIDTH 7 0
BBX 6 10 0 0
BITMAP
30
f0
30
30
30
30
30
30
30
fc
ENDCHAR
STARTCHAR Two
ENCODING 50
SWIDTH 500 0
DWIDTH 7 0
BBX 7 10 0 0
BITMAP
38
7c
8c
0c
08
10
20
42
7e
fc
ENDCHAR
STARTCHAR Three
ENCODING 51
SWIDTH 500 0
DWIDTH 7 0
BBX 6 10 0 0
BITMAP
78
8c
0c
18
38
1c
0c
0c
c8
f0
ENDCHAR
STARTCHAR Four
ENCODING 52
SWIDTH 500 0
DWIDTH 7 0
BBX 7 10 0 0
BITMAP
04
0c
1c
2c
4c
8c
fe
fe
0c
0c
ENDCHAR
STARTCHAR Five
ENCODING 53
SWIDTH 500 0
DWIDTH 7 0
BBX 6 10 0 0
BITMAP
3c
78
40
70
f8
1c
04
04
c8
f0
ENDCHAR
STARTCHAR Six
ENCODING 54
SWIDTH 500 0
DWIDTH 7 0
BBX 6 10 0 0
BITMAP
0c
30
60
c0
f8
cc
cc
cc
cc
78
ENDCHAR
STARTCHAR Seven
ENCODING 55
SWIDTH 500 0
DWIDTH 7 0
BBX 6 10 0 0
BITMAP
7c
fc
9c
18
18
18
18
18
30
30
ENDCHAR
STARTCHAR Eight
ENCODING 56
SWIDTH 500 0
DWIDTH 7 0
BBX 6 10 0 0
BITMAP
78
cc
cc
e8
78
7c
dc
cc
cc
78
ENDCHAR
STARTCHAR Nine
ENCODING 57
SWIDTH 500 0
DWIDTH 7 0
BBX 6 10 0 0
BITMAP
78
cc
cc
cc
cc
7c
0c
18
30
c0
ENDCHAR
STARTCHAR Colon
ENCODING 58
SWIDTH 333 0
DWIDTH 5 0
BBX 2 7 1 0
BITMAP
c0
c0
00
00
00
c0
c0
ENDCHAR
STARTCHAR SemiColon
ENCODING 59
SWIDTH 333 0
DWIDTH 5 0
BBX 3 9 0 -2
BITMAP
60
60
00
00
00
60
60
20
c0
ENDCHAR
STARTCHAR Less
ENCODING 60
SWIDTH 681 0
DWIDTH 10 0
BBX 8 7 1 0
BITMAP
01
0e
38
c0
38
0e
01
ENDCHAR
STARTCHAR Equal
ENCODING 61
SWIDTH 677 0
DWIDTH 9 0
BBX 8 4 1 2
BITMAP
ff
00
00
ff
ENDCHAR
STARTCHAR Greater
ENCODING 62
SWIDTH 681 0
DWIDTH 10 0
BBX 8 7 1 0
BITMAP
80
70
1c
03
1c
70
80
ENDCHAR
STARTCHAR Question
ENCODING 63
SWIDTH 500 0
DWIDTH 7 0
BBX 5 10 1 0
BITMAP
70
d8
d8
18
10
20
20
00
60
60
ENDCHAR
STARTCHAR TildeFullEqual
ENCODING 64
SWIDTH 675 0
DWIDTH 9 0
BBX 7 8 1 0
BITMAP
62
92
8c
00
fe
00
00
fe
ENDCHAR
STARTCHAR CapAlpha
ENCODING 65
SWIDTH 760 0
DWIDTH 11 0
BBX 11 10 0 0
BITMAP
0400
0e00
0e00
0e00
1300
1300
1f00
2180
61c0
f3e0
ENDCHAR
STARTCHAR CapBeta
ENCODING 66
SWIDTH 658 0
DWIDTH 9 0
BBX 8 10 0 0
BITMAP
fe
63
63
63
7c
62
63
63
63
fe
ENDCHAR
STARTCHAR CapChi
ENCODING 67
SWIDTH 769 0
DWIDTH 11 0
BBX 10 10 0 0
BITMAP
fbc0
7100
3a00
1c00
0c00
0e00
1600
3300
6380
f3c0
ENDCHAR
STARTCHAR CapDelta
ENCODING 68
SWIDTH 677 0
DWIDTH 9 0
BBX 9 10 0 0
BITMAP
0800
1c00
1c00
1c00
2600
2600
4700
4300
4300
ff80
ENDCHAR
STARTCHAR CapEpsilon
ENCODING 69
SWIDTH 634 0
DWIDTH 9 0
BBX 9 10 0 0
BITMAP
ff00
6100
6000
6200
7e00
6200
6000
6080
6180
ff00
ENDCHAR
STARTCHAR CapPhi
ENCODING 70
SWIDTH 677 0
DWIDTH 10 0
BBX 10 10 0 0
BITMAP
1e00
0c00
3f00
6d80
ccc0
ccc0
6d80
3f00
0c00
1e00
ENDCHAR
STARTCHAR CapGamma
ENCODING 71
SWIDTH 592 0
DWIDTH 8 0
BBX 7 10 0 0
BITMAP
fe
62
60
60
60
60
60
60
60
f0
ENDCHAR
STARTCHAR CapEta
ENCODING 72
SWIDTH 744 0
DWIDTH 10 0
BBX 10 10 0 0
BITMAP
f3c0
6180
6180
6180
7f80
6180
6180
6180
6180
f3c0
ENDCHAR
STARTCHAR CapIota
ENCODING 73
SWIDTH 351 0
DWIDTH 5 0
BBX 4 10 0 0
BITMAP
f0
60
60
60
60
60
60
60
60
f0
ENDCHAR
STARTCHAR CurlyTheta
ENCODING 74
SWIDTH 545 0
DWIDTH 8 0
BBX 8 10 0 0
BITMAP
0c
16
16
16
6e
c7
cc
cc
c8
70
ENDCHAR
STARTCHAR CapKappa
ENCODING 75
SWIDTH 752 0
DWIDTH 11 0
BBX 11 10 0 0
BITMAP
f3c0
6100
6200
6400
7c00
6e00
6700
6380
61c0
f3e0
ENDCHAR
STARTCHAR CapLambda
ENCODING 76
SWIDTH 753 0
DWIDTH 11 0
BBX 11 10 0 0
BITMAP
0400
0e00
0e00
1300
1300
1180
2180
20c0
40c0
f1e0
ENDCHAR
STARTCHAR CapMu
ENCODING 77
SWIDTH 883 0
DWIDTH 12 0
BBX 12 10 0 0
BITMAP
e070
70e0
70e0
70e0
5960
5960
4e60
4e60
4e60
e4f0
ENDCHAR
STARTCHAR CapNu
ENCODING 78
SWIDTH 749 0
DWIDTH 10 0
BBX 10 10 0 0
BITMAP
e1c0
7080
7880
5880
4c80
4680
4780
4380
4180
e080
ENDCHAR
STARTCHAR CapOmicron
ENCODING 79
SWIDTH 733 0
DWIDTH 10 0
BBX 9 10 0 0
BITMAP
3e00
6300
4100
c180
c180
c180
c180
4100
6300
3e00
ENDCHAR
STARTCHAR CapPi
ENCODING 80
SWIDTH 733 0
DWIDTH 10 0
BBX 10 10 0 0
BITMAP
ffc0
6180
6180
6180
6180
6180
6180
6180
6180
f3c0
ENDCHAR
STARTCHAR CapTheta
ENCODING 81
SWIDTH 731 0
DWIDTH 10 0
BBX 10 10 0 0
BITMAP
1e00
6180
4180
d2c0
dec0
dec0
d2c0
4180
6180
1e00
ENDCHAR
STARTCHAR CapRho
ENCODING 82
SWIDTH 590 0
DWIDTH 8 0
BBX 8 10 0 0
BITMAP
fc
66
63
63
66
7c
60
60
60
f0
ENDCHAR
STARTCHAR CapSigma
ENCODING 83
SWIDTH 610 0
DWIDTH 9 0
BBX 8 10 0 0
BITMAP
ff
61
31
10
18
10
11
21
7f
ff
ENDCHAR
STARTCHAR CapTau
ENCODING 84
SWIDTH 620 0
DWIDTH 9 0
BBX 8 10 0 0
BITMAP
ff
99
18
18
18
18
18
18
18
3c
ENDCHAR
STARTCHAR CapUpsilon
ENCODING 85
SWIDTH 684 0
DWIDTH 10 0
BBX 9 10 1 0
BITMAP
c180
6200
3400
3800
1800
1800
1800
1800
1800
3c00
ENDCHAR
STARTCHAR FinalSigma
ENCODING 86
SWIDTH 513 0
DWIDTH 7 0
BBX 6 10 0 -3
BITMAP
38
4c
c0
c0
c0
e0
70
18
18
30
ENDCHAR
STARTCHAR CapOmega
ENCODING 87
SWIDTH 748 0
DWIDTH 11 0
BBX 11 10 0 0
BITMAP
1f00
3180
60c0
60c0
60c0
60c0
2080
3180
9120
fbe0
ENDCHAR
STARTCHAR CapXi
ENCODING 88
SWIDTH 615 0
DWIDTH 9 0
BBX 8 10 0 0
BITMAP
ff
ff
81
24
3c
3c
24
81
ff
ff
ENDCHAR
STARTCHAR CapPsi
ENCODING 89
SWIDTH 647 0
DWIDTH 9 0
BBX 10 10 -1 0
BITMAP
1e00
ccc0
6d80
6d80
6d80
3f00
0c00
0c00
0c00
1e00
ENDCHAR
STARTCHAR CapZeta
ENCODING 90
SWIDTH 661 0
DWIDTH 9 0
BBX 8 10 0 0
BITMAP
7f
43
06
0c
18
18
30
61
c3
ff
ENDCHAR
STARTCHAR LBracket
ENCODING 91
SWIDTH 359 0
DWIDTH 5 0
BBX 3 12 1 -2
BITMAP
e0
c0
c0
c0
c0
c0
c0
c0
c0
c0
c0
e0
ENDCHAR
STARTCHAR Therefore
ENCODING 92
SWIDTH 629 0
DWIDTH 9 0
BBX 8 7 1 0
BITMAP
18
18
00
00
00
c3
c3
ENDCHAR
STARTCHAR RBracket
ENCODING 93
SWIDTH 359 0
DWIDTH 5 0
BBX 3 12 1 -2
BITMAP
e0
60
60
60
60
60
60
60
60
60
60
e0
ENDCHAR
STARTCHAR Perpendicular
ENCODING 94
SWIDTH 752 0
DWIDTH 11 0
BBX 10 8 1 0
BITMAP
0c00
0c00
0c00
0c00
0c00
0c00
0c00
ffc0
ENDCHAR
STARTCHAR Underbar
ENCODING 95
SWIDTH 580 0
DWIDTH 8 0
BBX 6 1 1 -2
BITMAP
fc
ENDCHAR
STARTCHAR Hat
ENCODING 96
SWIDTH 371 0
DWIDTH 5 0
BBX 5 3 0 0
BITMAP
20
70
88
ENDCHAR
STARTCHAR Alpha
ENCODING 97
SWIDTH 630 0
DWIDTH 9 0
BBX 9 7 0 0
BITMAP
3880
6d00
ce00
cc00
cc00
d900
7600
ENDCHAR
STARTCHAR Beta
ENCODING 98
SWIDTH 569 0
DWIDTH 8 0
BBX 9 13 -1 -3
BITMAP
0700
0c80
1880
1900
1e00
3300
3300
3300
7200
7c00
6000
6000
c000
ENDCHAR
STARTCHAR Chi
ENCODING 99
SWIDTH 605 0
DWIDTH 8 0
BBX 10 10 -2 -3
BITMAP
1840
0c80
0d00
0e00
0c00
0c00
1c00
2c00
4d00
8600
ENDCHAR
STARTCHAR Delta
ENCODING 100
SWIDTH 505 0
DWIDTH 7 0
BBX 7 10 0 0
BITMAP
1c
22
20
38
6c
cc
cc
cc
d8
70
ENDCHAR
STARTCHAR Epsilon
ENCODING 101
SWIDTH 411 0
DWIDTH 6 0
BBX 5 7 0 0
BITMAP
38
60
c0
f8
c0
c0
78
ENDCHAR
STARTCHAR Phi
ENCODING 102
SWIDTH 590 0
DWIDTH 8 0
BBX 8 12 0 -3
BITMAP
06
04
1e
6f
4b
cb
da
d6
78
10
20
20
ENDCHAR
STARTCHAR Gamma
ENCODING 103
SWIDTH 589 0
DWIDTH 8 0
BBX 8 9 0 -3
BITMAP
63
96
14
1c
18
10
20
60
60
ENDCHAR
STARTCHAR Eta
ENCODING 104
SWIDTH 540 0
DWIDTH 8 0
BBX 7 10 1 -3
BITMAP
6c
f6
66
6c
6c
cc
d8
18
18
18
ENDCHAR
STARTCHAR Iota
ENCODING 105
SWIDTH 307 0
DWIDTH 4 0
BBX 4 7 0 0
BITMAP
60
60
60
60
c0
d0
e0
ENDCHAR
STARTCHAR CurlyPhi
ENCODING 106
SWIDTH 605 0
DWIDTH 8 0
BBX 8 10 0 -3
BITMAP
46
89
89
91
92
fc
78
20
20
60
ENDCHAR
STARTCHAR Kappa
ENCODING 107
SWIDTH 475 0
DWIDTH 7 0
BBX 7 7 0 0
BITMAP
32
34
68
70
78
6c
c6
ENDCHAR
STARTCHAR Lambda
ENCODING 108
SWIDTH 523 0
DWIDTH 7 0
BBX 7 10 0 0
BITMAP
60
30
18
18
18
38
38
58
48
ce
ENDCHAR
STARTCHAR Mu
ENCODING 109
SWIDTH 569 0
DWIDTH 8 0
BBX 9 10 -1 -3
BITMAP
1b00
1b00
3300
3600
3600
3680
7f00
6000
6000
e000
ENDCHAR
STARTCHAR Nu
ENCODING 110
SWIDTH 473 0
DWIDTH 7 0
BBX 7 7 0 0
BITMAP
e6
76
34
34
38
30
40
ENDCHAR
STARTCHAR Omicron
ENCODING 111
SWIDTH 518 0
DWIDTH 7 0
BBX 7 7 0 0
BITMAP
3c
66
46
c6
c4
cc
78
ENDCHAR
STARTCHAR Pi
ENCODING 112
SWIDTH 556 0
DWIDTH 8 0
BBX 9 7 0 0
BITMAP
7f80
9b00
1b00
3600
3600
e700
e700
ENDCHAR
STARTCHAR Theta
ENCODING 113
SWIDTH 479 0
DWIDTH 7 0
BBX 7 10 0 0
BITMAP
1c
36
66
66
e6
fe
cc
cc
d8
70
ENDCHAR
STARTCHAR Rho
ENCODING 114
SWIDTH 549 0
DWIDTH 8 0
BBX 7 10 0 -3
BITMAP
1c
36
66
66
66
6c
f8
c0
c0
c0
ENDCHAR
STARTCHAR Sigma
ENCODING 115
SWIDTH 701 0
DWIDTH 10 0
BBX 10 7 1 0
BITMAP
1fc0
6600
4600
c600
c400
cc00
7000
ENDCHAR
STARTCHAR Tau
ENCODING 116
SWIDTH 512 0
DWIDTH 7 0
BBX 7 7 0 0
BITMAP
7e
98
18
30
30
30
38
ENDCHAR
STARTCHAR Upsilon
ENCODING 117
SWIDTH 554 0
DWIDTH 8 0
BBX 8 7 0 0
BITMAP
f1
33
33
62
62
64
38
ENDCHAR
STARTCHAR CurlyPi
ENCODING 118
SWIDTH 854 0
DWIDTH 12 0
BBX 11 7 1 0
BITMAP
7fe0
b0c0
24c0
64c0
64c0
6580
3f00
ENDCHAR
STARTCHAR Omega
ENCODING 119
SWIDTH 731 0
DWIDTH 10 0
BBX 10 7 0 0
BITMAP
3080
60c0
46c0
c4c0
c4c0
cd80
7700
ENDCHAR
STARTCHAR Xi
ENCODING 120
SWIDTH 477 0
DWIDTH 7 0
BBX 7 13 0 -3
BITMAP
0a
0e
10
30
30
1c
60
c0
c0
78
08
48
70
ENDCHAR
STARTCHAR Psi
ENCODING 121
SWIDTH 648 0
DWIDTH 9 0
BBX 9 12 0 -3
BITMAP
0400
0c00
6d80
6b00
7b00
db00
d600
f600
7c00
3000
2000
2000
ENDCHAR
STARTCHAR Zeta
ENCODING 122
SWIDTH 453 0
DWIDTH 6 0
BBX 7 12 0 -3
BITMAP
16
1c
08
10
20
60
c0
c0
f0
08
48
70
ENDCHAR
STARTCHAR LBrace
ENCODING 123
SWIDTH 372 0
DWIDTH 5 0
BBX 4 12 0 -2
BITMAP
30
60
60
60
60
c0
60
60
60
60
60
30
ENDCHAR
STARTCHAR VertBar
ENCODING 124
SWIDTH 220 0
DWIDTH 3 0
BBX 2 10 1 0
BITMAP
c0
c0
c0
c0
c0
c0
c0
c0
c0
c0
ENDCHAR
STARTCHAR RBrace
ENCODING 125
SWIDTH 372 0
DWIDTH 5 0
BBX 4 12 1 -2
BITMAP
c0
60
60
60
60
30
60
60
60
60
60
c0
ENDCHAR
STARTCHAR Tilde
ENCODING 126
SWIDTH 667 0
DWIDTH 9 0
BBX 7 3 1 2
BITMAP
62
d6
8c
ENDCHAR
STARTCHAR DEL
ENCODING 127
SWIDTH 189 0
DWIDTH 3 0
BBX 0 0 0 0
BITMAP
ENDCHAR
STARTCHAR FractionBarExt
ENCODING 128
SWIDTH 165 0
DWIDTH 2 0
BBX 2 1 0 3
BITMAP
c0
ENDCHAR
STARTCHAR EscapeChar
ENCODING 129
SWIDTH 297 0
DWIDTH 4 0
BBX 2 7 1 -1
BITMAP
c0
00
00
c0
00
00
c0
ENDCHAR
STARTCHAR SelectPlaceholder
ENCODING 130
SWIDTH 595 0
DWIDTH 8 0
BBX 7 7 1 0
BITMAP
fe
fe
fe
fe
fe
fe
fe
ENDCHAR
STARTCHAR Placeholder
ENCODING 131
SWIDTH 589 0
DWIDTH 8 0
BBX 7 7 1 0
BITMAP
fe
82
82
82
82
82
fe
ENDCHAR
STARTCHAR Continuation
ENCODING 132
SWIDTH 533 0
DWIDTH 7 0
BBX 5 9 1 0
BITMAP
80
00
00
00
20
00
00
00
08
ENDCHAR
STARTCHAR Skeleton
ENCODING 133
SWIDTH 372 0
DWIDTH 5 0
BBX 4 3 1 1
BITMAP
f0
f0
f0
ENDCHAR
STARTCHAR LSkeleton
ENCODING 134
SWIDTH 1000 0
DWIDTH 14 0
BBX 12 7 1 0
BITMAP
0210
0c60
7380
c600
7380
0c60
0210
ENDCHAR
STARTCHAR RSkeleton
ENCODING 135
SWIDTH 1000 0
DWIDTH 14 0
BBX 12 7 1 0
BITMAP
8400
6300
1ce0
0210
1ce0
6300
8400
ENDCHAR
STARTCHAR Spacer
ENCODING 136
SWIDTH 250 0
DWIDTH 4 0
BBX 4 2 0 -2
BITMAP
90
f0
ENDCHAR
STARTCHAR Cross
ENCODING 137
SWIDTH 522 0
DWIDTH 7 0
BBX 5 5 1 1
BITMAP
88
50
20
50
88
ENDCHAR
STARTCHAR DblEqual
ENCODING 138
SWIDTH 856 0
DWIDTH 12 0
BBX 10 4 1 2
BITMAP
ffc0
0000
0000
ffc0
ENDCHAR
STARTCHAR Grave
ENCODING 139
SWIDTH 262 0
DWIDTH 4 0
BBX 4 3 0 1
BITMAP
c0
60
30
ENDCHAR
STARTCHAR Acute
ENCODING 140
SWIDTH 262 0
DWIDTH 4 0
BBX 4 3 0 1
BITMAP
30
60
c0
ENDCHAR
STARTCHAR DoubleAcute
ENCODING 141
SWIDTH 467 0
DWIDTH 7 0
BBX 7 3 0 1
BITMAP
d8
6c
36
ENDCHAR
STARTCHAR OverTilde
ENCODING 142
SWIDTH 357 0
DWIDTH 5 0
BBX 5 2 0 1
BITMAP
68
b0
ENDCHAR
STARTCHAR OverBar
ENCODING 143
SWIDTH 352 0
DWIDTH 5 0
BBX 5 1 0 1
BITMAP
f8
ENDCHAR
STARTCHAR DblUpDownArrow
ENCODING 144
SWIDTH 726 0
DWIDTH 10 0
BBX 9 15 1 -2
BITMAP
0800
1c00
3600
6300
a280
2200
2200
2200
2200
2200
a280
6300
3600
1c00
0800
ENDCHAR
STARTCHAR DblUpExtens1
ENCODING 145
SWIDTH 726 0
DWIDTH 10 0
BBX 5 5 3 0
BITMAP
88
88
88
88
88
ENDCHAR
STARTCHAR DblLongLArrow
ENCODING 146
SWIDTH 1426 0
DWIDTH 20 0
BBX 18 9 1 -1
BITMAP
080000
100000
3fffc0
600000
c00000
600000
3fffc0
100000
080000
ENDCHAR
STARTCHAR DblExtens
ENCODING 147
SWIDTH 488 0
DWIDTH 7 0
BBX 5 5 1 1
BITMAP
f8
00
00
00
f8
ENDCHAR
STARTCHAR DblLongRArrow
ENCODING 148
SWIDTH 1426 0
DWIDTH 20 0
BBX 18 9 1 -1
BITMAP
000400
000200
ffff00
000180
0000c0
000180
ffff00
000200
000400
ENDCHAR
STARTCHAR DblLRArrow2
ENCODING 149
SWIDTH 1165 0
DWIDTH 16 0
BBX 14 9 1 -1
BITMAP
0840
1020
3ff0
6018
c00c
6018
3ff0
1020
0840
ENDCHAR
STARTCHAR DblLongLRArrow
ENCODING 150
SWIDTH 1659 0
DWIDTH 23 0
BBX 21 9 1 -1
BITMAP
080080
100040
3fffe0
600030
c00018
600030
3fffe0
100040
080080
ENDCHAR
STARTCHAR UpDownArrow
ENCODING 151
SWIDTH 591 0
DWIDTH 8 0
BBX 7 13 0 0
BITMAP
10
38
54
92
10
10
10
10
10
92
54
38
10
ENDCHAR
STARTCHAR LongLArrow
ENCODING 152
SWIDTH 1422 0
DWIDTH 20 0
BBX 18 7 1 0
BITMAP
100000
200000
400000
ffffc0
400000
200000
100000
ENDCHAR
STARTCHAR LongRArrow
ENCODING 153
SWIDTH 1430 0
DWIDTH 20 0
BBX 18 7 1 0
BITMAP
000200
000100
000080
ffffc0
000080
000100
000200
ENDCHAR
STARTCHAR LongLRArrow
ENCODING 154
SWIDTH 1660 0
DWIDTH 23 0
BBX 21 7 1 0
BITMAP
100040
200020
400010
fffff8
400010
200020
100040
ENDCHAR
STARTCHAR ColonEqual
ENCODING 155
SWIDTH 916 0
DWIDTH 13 0
BBX 11 6 1 1
BITMAP
c000
dfe0
0000
0000
dfe0
c000
ENDCHAR
STARTCHAR Diamond2
ENCODING 156
SWIDTH 512 0
DWIDTH 7 0
BBX 7 7 0 0
BITMAP
10
28
44
82
44
28
10
ENDCHAR
STARTCHAR NotSquareSprsetEqual
ENCODING 157
SWIDTH 697 0
DWIDTH 10 0
BBX 8 10 1 -2
BITMAP
fc
02
01
01
01
01
02
fc
00
ff
ENDCHAR
STARTCHAR AtSign
ENCODING 158
SWIDTH 743 0
DWIDTH 10 0
BBX 8 9 1 -1
BITMAP
1c
62
5d
b5
b5
b5
9e
40
3c
ENDCHAR
STARTCHAR Solidmedsqr
ENCODING 159
SWIDTH 519 0
DWIDTH 7 0
BBX 6 6 1 1
BITMAP
fc
fc
fc
fc
fc
fc
ENDCHAR
STARTCHAR OverDot
ENCODING 160
SWIDTH 140 0
DWIDTH 2 0
BBX 2 2 0 1
BITMAP
c0
c0
ENDCHAR
STARTCHAR CurlyCapUpsilon
ENCODING 161
SWIDTH 671 0
DWIDTH 9 0
BBX 9 10 0 0
BITMAP
c300
2480
3580
1800
1800
1800
1800
1800
1800
3c00
ENDCHAR
STARTCHAR Prime
ENCODING 162
SWIDTH 373 0
DWIDTH 5 0
BBX 4 6 1 1
BITMAP
30
70
60
60
c0
80
ENDCHAR
STARTCHAR LessEqual
ENCODING 163
SWIDTH 677 0
DWIDTH 9 0
BBX 8 9 1 -1
BITMAP
01
0f
38
e0
38
0f
01
00
ff
ENDCHAR
STARTCHAR Fraction
ENCODING 164
SWIDTH 595 0
DWIDTH 8 0
BBX 8 10 0 0
BITMAP
03
02
04
0c
08
10
30
20
40
c0
ENDCHAR
STARTCHAR Infinity
ENCODING 165
SWIDTH 893 0
DWIDTH 13 0
BBX 11 5 1 1
BITMAP
71c0
ce60
c460
c660
79c0
ENDCHAR
STARTCHAR RuleDelayed
ENCODING 166
SWIDTH 822 0
DWIDTH 12 0
BBX 10 7 1 0
BITMAP
c000
c300
0180
1fc0
0180
c300
c000
ENDCHAR
STARTCHAR ClubSuit
ENCODING 167
SWIDTH 618 0
DWIDTH 9 0
BBX 7 8 1 0
BITMAP
10
38
38
7c
fe
fe
7c
10
ENDCHAR
STARTCHAR DiamondSuit
ENCODING 168
SWIDTH 587 0
DWIDTH 8 0
BBX 7 9 1 -1
BITMAP
10
28
28
44
82
44
28
28
10
ENDCHAR
STARTCHAR HeartSuit
ENCODING 169
SWIDTH 645 0
DWIDTH 9 0
BBX 7 8 1 0
BITMAP
6c
92
82
82
44
28
10
10
ENDCHAR
STARTCHAR SpadeSuit
ENCODING 170
SWIDTH 582 0
DWIDTH 8 0
BBX 7 8 0 0
BITMAP
10
10
38
7c
fe
fe
fe
10
ENDCHAR
STARTCHAR LRArrow
ENCODING 171
SWIDTH 1028 0
DWIDTH 14 0
BBX 13 7 1 0
BITMAP
1040
2020
4010
fff8
4010
2020
1040
ENDCHAR
STARTCHAR LArrow
ENCODING 172
SWIDTH 870 0
DWIDTH 12 0
BBX 10 7 1 0
BITMAP
1000
2000
4000
ffc0
4000
2000
1000
ENDCHAR
STARTCHAR UpArrow
ENCODING 173
SWIDTH 590 0
DWIDTH 8 0
BBX 7 10 0 0
BITMAP
10
38
54
92
10
10
10
10
10
10
ENDCHAR
STARTCHAR RArrow
ENCODING 174
SWIDTH 870 0
DWIDTH 12 0
BBX 10 7 1 0
BITMAP
0200
0100
0080
ffc0
0080
0100
0200
ENDCHAR
STARTCHAR DownArrow
ENCODING 175
SWIDTH 590 0
DWIDTH 8 0
BBX 7 10 0 0
BITMAP
10
10
10
10
10
10
92
54
38
10
ENDCHAR
STARTCHAR Degree
ENCODING 176
SWIDTH 404 0
DWIDTH 6 0
BBX 5 5 0 5
BITMAP
70
88
88
88
70
ENDCHAR
STARTCHAR PlusMinus
ENCODING 177
SWIDTH 683 0
DWIDTH 10 0
BBX 7 9 1 0
BITMAP
10
10
10
fe
10
10
10
00
fe
ENDCHAR
STARTCHAR DoublePrime
ENCODING 178
SWIDTH 651 0
DWIDTH 9 0
BBX 7 6 1 1
BITMAP
36
76
6c
6c
d8
90
ENDCHAR
STARTCHAR GreaterEqual
ENCODING 179
SWIDTH 677 0
DWIDTH 9 0
BBX 8 9 0 -1
BITMAP
80
f0
1c
07
1c
f0
80
00
ff
ENDCHAR
STARTCHAR Multiply
ENCODING 180
SWIDTH 642 0
DWIDTH 9 0
BBX 7 7 1 0
BITMAP
82
44
28
10
28
44
82
ENDCHAR
STARTCHAR Proportional
ENCODING 181
SWIDTH 715 0
DWIDTH 10 0
BBX 9 6 1 0
BITMAP
7380
9c00
8800
8c00
8c00
7380
ENDCHAR
STARTCHAR PartialDiff
ENCODING 182
SWIDTH 558 0
DWIDTH 8 0
BBX 7 10 0 0
BITMAP
1c
22
02
1e
66
46
c6
c4
cc
70
ENDCHAR
STARTCHAR Bullet
ENCODING 183
SWIDTH 354 0
DWIDTH 5 0
BBX 4 4 0 2
BITMAP
60
f0
f0
60
ENDCHAR
STARTCHAR Divide
ENCODING 184
SWIDTH 676 0
DWIDTH 9 0
BBX 8 9 1 -1
BITMAP
18
18
00
00
ff
00
00
18
18
ENDCHAR
STARTCHAR NotEqual
ENCODING 185
SWIDTH 677 0
DWIDTH 9 0
BBX 8 9 1 -1
BITMAP
04
08
ff
08
10
ff
10
20
20
ENDCHAR
STARTCHAR Equivalence
ENCODING 186
SWIDTH 677 0
DWIDTH 9 0
BBX 7 7 1 0
BITMAP
fe
00
00
fe
00
00
fe
ENDCHAR
STARTCHAR Approxequal
ENCODING 187
SWIDTH 667 0
DWIDTH 9 0
BBX 7 6 1 0
BITMAP
62
d6
8c
62
d6
8c
ENDCHAR
STARTCHAR Ellipsis
ENCODING 188
SWIDTH 1000 0
DWIDTH 14 0
BBX 12 2 1 0
BITMAP
c630
c630
ENDCHAR
STARTCHAR ArrowVertEx
ENCODING 189
SWIDTH 590 0
DWIDTH 8 0
BBX 1 5 3 0
BITMAP
80
80
80
80
80
ENDCHAR
STARTCHAR ArrowHorizEx
ENCODING 190
SWIDTH 364 0
DWIDTH 5 0
BBX 6 1 0 3
BITMAP
fc
ENDCHAR
STARTCHAR CarriageReturn
ENCODING 191
SWIDTH 628 0
DWIDTH 9 0
BBX 7 9 0 0
BITMAP
02
02
02
02
22
42
fe
40
20
ENDCHAR
STARTCHAR Aleph
ENCODING 192
SWIDTH 666 0
DWIDTH 9 0
BBX 8 10 0 0
BITMAP
42
c6
e7
75
7c
5c
ce
e7
63
62
ENDCHAR
STARTCHAR IFraktur
ENCODING 193
SWIDTH 355 0
DWIDTH 5 0
BBX 4 10 0 0
BITMAP
f0
20
60
60
60
60
60
60
40
f0
ENDCHAR
STARTCHAR RFraktur
ENCODING 194
SWIDTH 727 0
DWIDTH 10 0
BBX 9 10 0 0
BITMAP
3c00
d300
3300
3300
3600
3e00
3600
3600
2300
7380
ENDCHAR
STARTCHAR Weierstrass
ENCODING 195
SWIDTH 666 0
DWIDTH 9 0
BBX 8 10 1 -3
BITMAP
06
6b
d3
e3
f3
76
7c
b0
b0
60
ENDCHAR
STARTCHAR CircleMultiply
ENCODING 196
SWIDTH 835 0
DWIDTH 12 0
BBX 10 10 1 -1
BITMAP
1e00
6180
6180
9240
8c40
8c40
9240
6180
6180
1e00
ENDCHAR
STARTCHAR CirclePlus
ENCODING 197
SWIDTH 835 0
DWIDTH 12 0
BBX 10 10 1 -1
BITMAP
1e00
6980
4880
8840
ffc0
8840
8840
4880
6980
1e00
ENDCHAR
STARTCHAR EmptySet
ENCODING 198
SWIDTH 764 0
DWIDTH 11 0
BBX 9 13 1 -2
BITMAP
0200
1e00
6700
4500
c980
c980
c980
d180
5100
7300
3c00
2000
2000
ENDCHAR
STARTCHAR Union
ENCODING 199
SWIDTH 747 0
DWIDTH 10 0
BBX 8 10 1 0
BITMAP
81
81
81
81
81
81
81
81
42
3c
ENDCHAR
STARTCHAR Intersection
ENCODING 200
SWIDTH 747 0
DWIDTH 10 0
BBX 8 10 1 0
BITMAP
3c
42
81
81
81
81
81
81
81
81
ENDCHAR
STARTCHAR ProperSuperset
ENCODING 201
SWIDTH 697 0
DWIDTH 10 0
BBX 8 8 1 -1
BITMAP
fc
02
01
01
01
01
02
fc
ENDCHAR
STARTCHAR NbSpace
ENCODING 202
SWIDTH 189 0
DWIDTH 3 0
BBX 0 0 0 0
BITMAP
ENDCHAR
STARTCHAR NotSubset
ENCODING 203
SWIDTH 697 0
DWIDTH 10 0
BBX 8 12 1 -3
BITMAP
04
04
3f
48
88
88
90
90
50
3f
20
20
ENDCHAR
STARTCHAR ProperSubset
ENCODING 204
SWIDTH 697 0
DWIDTH 10 0
BBX 8 8 1 -1
BITMAP
3f
40
80
80
80
80
40
3f
ENDCHAR
STARTCHAR ReflexSubset
ENCODING 205
SWIDTH 697 0
DWIDTH 10 0
BBX 8 10 1 -2
BITMAP
3f
40
80
80
80
80
40
3f
00
ff
ENDCHAR
STARTCHAR Element
ENCODING 206
SWIDTH 697 0
DWIDTH 10 0
BBX 8 8 1 -1
BITMAP
3f
40
80
ff
80
c0
40
3f
ENDCHAR
STARTCHAR NotElement
ENCODING 207
SWIDTH 697 0
DWIDTH 10 0
BBX 8 12 1 -3
BITMAP
04
04
3f
48
88
ff
90
90
50
3f
20
20
ENDCHAR
STARTCHAR Angle
ENCODING 208
SWIDTH 512 0
DWIDTH 7 0
BBX 5 8 1 0
BITMAP
20
20
40
40
40
40
80
f8
ENDCHAR
STARTCHAR Gradient
ENCODING 209
SWIDTH 719 0
DWIDTH 10 0
BBX 9 9 0 0
BITMAP
ff80
6100
6100
3200
3200
3a00
1c00
1c00
0800
ENDCHAR
STARTCHAR RegTM
ENCODING 210
SWIDTH 786 0
DWIDTH 11 0
BBX 10 10 0 0
BITMAP
1e00
6180
7e80
9240
9c40
9640
bb40
4080
6180
1e00
ENDCHAR
STARTCHAR Copyright
ENCODING 211
SWIDTH 786 0
DWIDTH 11 0
BBX 10 10 0 0
BITMAP
1e00
6180
4c80
9240
a040
a040
9040
4e80
6180
1e00
ENDCHAR
STARTCHAR TM
ENCODING 212
SWIDTH 1110 0
DWIDTH 16 0
BBX 15 6 1 4
BITMAP
fb8e
21cc
2154
2154
2174
73ae
ENDCHAR
STARTCHAR Product
ENCODING 213
SWIDTH 801 0
DWIDTH 11 0
BBX 9 11 1 0
BITMAP
ff80
6300
6300
6300
6300
6300
6300
6300
6300
6300
f780
ENDCHAR
STARTCHAR Radical
ENCODING 214
SWIDTH 813 0
DWIDTH 11 0
BBX 10 13 1 -3
BITMAP
0040
0040
0080
0080
2080
f100
3100
1a00
1a00
0e00
0c00
0400
0400
ENDCHAR
STARTCHAR DotMath
ENCODING 215
SWIDTH 279 0
DWIDTH 4 0
BBX 2 2 1 3
BITMAP
c0
c0
ENDCHAR
STARTCHAR LogicalNot
ENCODING 216
SWIDTH 680 0
DWIDTH 10 0
BBX 8 4 1 1
BITMAP
ff
01
01
01
ENDCHAR
STARTCHAR Wedge
ENCODING 217
SWIDTH 669 0
DWIDTH 9 0
BBX 9 9 0 0
BITMAP
0800
1c00
1400
1400
2200
2200
6300
4100
c180
ENDCHAR
STARTCHAR Vee
ENCODING 218
SWIDTH 669 0
DWIDTH 9 0
BBX 9 9 0 0
BITMAP
c180
4100
6300
2200
2200
1400
1400
1c00
0800
ENDCHAR
STARTCHAR DblLRArrow
ENCODING 219
SWIDTH 1165 0
DWIDTH 16 0
BBX 14 9 1 -1
BITMAP
0840
1020
3ff0
6018
c00c
6018
3ff0
1020
0840
ENDCHAR
STARTCHAR DblLArrow
ENCODING 220
SWIDTH 870 0
DWIDTH 12 0
BBX 10 9 1 -1
BITMAP
0800
1000
3fc0
6000
c000
6000
3fc0
1000
0800
ENDCHAR
STARTCHAR DblUpArrow
ENCODING 221
SWIDTH 726 0
DWIDTH 10 0
BBX 9 10 1 0
BITMAP
0800
1c00
3600
6300
a280
2200
2200
2200
2200
2200
ENDCHAR
STARTCHAR DblRArrow
ENCODING 222
SWIDTH 870 0
DWIDTH 12 0
BBX 10 9 1 -1
BITMAP
0400
0200
ff00
0180
00c0
0180
ff00
0200
0400
ENDCHAR
STARTCHAR DblDownArrow
ENCODING 223
SWIDTH 726 0
DWIDTH 10 0
BBX 9 10 1 0
BITMAP
2200
2200
2200
2200
2200
a280
6300
3600
1c00
0800
ENDCHAR
STARTCHAR Lozenge
ENCODING 224
SWIDTH 512 0
DWIDTH 7 0
BBX 7 7 0 0
BITMAP
10
28
44
82
44
28
10
ENDCHAR
STARTCHAR LAngle
ENCODING 225
SWIDTH 398 0
DWIDTH 6 0
BBX 4 12 1 -2
BITMAP
10
20
20
40
40
80
80
40
40
20
20
10
ENDCHAR
STARTCHAR Diffd
ENCODING 226
SWIDTH 653 0
DWIDTH 9 0
BBX 11 10 0 0
BITMAP
07e0
0340
0340
1f40
2680
6680
c680
cd00
dd80
ef00
ENDCHAR
STARTCHAR Expe
ENCODING 227
SWIDTH 572 0
DWIDTH 8 0
BBX 7 7 1 0
BITMAP
1e
3a
52
bc
b0
b4
78
ENDCHAR
STARTCHAR Imagi
ENCODING 228
SWIDTH 366 0
DWIDTH 5 0
BBX 6 10 0 0
BITMAP
30
30
00
f8
68
68
68
d0
d4
f8
ENDCHAR
STARTCHAR Sum
ENCODING 229
SWIDTH 749 0
DWIDTH 10 0
BBX 8 10 1 0
BITMAP
ff
63
21
10
18
10
21
41
7f
ff
ENDCHAR
STARTCHAR LParenTop
ENCODING 230
SWIDTH 421 0
DWIDTH 6 0
BBX 5 12 1 -1
BITMAP
08
10
20
60
60
40
c0
c0
c0
c0
c0
c0
ENDCHAR
STARTCHAR LParenEx
ENCODING 231
SWIDTH 421 0
DWIDTH 6 0
BBX 2 6 1 -1
BITMAP
c0
c0
c0
c0
c0
c0
ENDCHAR
STARTCHAR LParenBot
ENCODING 232
SWIDTH 421 0
DWIDTH 6 0
BBX 5 12 1 0
BITMAP
c0
c0
c0
c0
c0
c0
40
60
60
20
10
08
ENDCHAR
STARTCHAR LBracketTop
ENCODING 233
SWIDTH 389 0
DWIDTH 5 0
BBX 4 3 1 -1
BITMAP
f0
c0
c0
ENDCHAR
STARTCHAR LBracketEx
ENCODING 234
SWIDTH 389 0
DWIDTH 5 0
BBX 2 6 1 -1
BITMAP
c0
c0
c0
c0
c0
c0
ENDCHAR
STARTCHAR LBracketBot
ENCODING 235
SWIDTH 389 0
DWIDTH 5 0
BBX 4 2 1 0
BITMAP
c0
f0
ENDCHAR
STARTCHAR LBraceTop
ENCODING 236
SWIDTH 597 0
DWIDTH 8 0
BBX 4 10 3 -1
BITMAP
10
20
60
40
c0
c0
c0
c0
c0
c0
ENDCHAR
STARTCHAR LBraceMid
ENCODING 237
SWIDTH 597 0
DWIDTH 8 0
BBX 5 11 0 -2
BITMAP
18
18
18
30
60
c0
60
30
18
18
18
ENDCHAR
STARTCHAR LBraceBot
ENCODING 238
SWIDTH 597 0
DWIDTH 8 0
BBX 4 10 3 0
BITMAP
c0
c0
c0
c0
c0
c0
40
60
20
10
ENDCHAR
STARTCHAR BraceEx
ENCODING 239
SWIDTH 597 0
DWIDTH 8 0
BBX 2 6 3 -1
BITMAP
c0
c0
c0
c0
c0
c0
ENDCHAR
STARTCHAR Slot
ENCODING 240
SWIDTH 710 0
DWIDTH 10 0
BBX 10 10 0 0
BITMAP
2100
2100
ffc0
2100
2100
2100
2100
ffc0
2100
2100
ENDCHAR
STARTCHAR RAngle
ENCODING 241
SWIDTH 398 0
DWIDTH 6 0
BBX 4 12 1 -2
BITMAP
80
40
40
20
20
10
10
20
20
40
40
80
ENDCHAR
STARTCHAR Intergral
ENCODING 242
SWIDTH 702 0
DWIDTH 10 0
BBX 8 15 1 -2
BITMAP
07
0b
08
18
18
18
18
18
18
18
18
18
18
d0
e0
ENDCHAR
STARTCHAR IntegralTop
ENCODING 243
SWIDTH 1013 0
DWIDTH 14 0
BBX 11 14 2 -1
BITMAP
0060
0060
0060
0060
0060
0060
0040
00c0
00c0
00c0
c080
e100
e300
3c00
ENDCHAR
STARTCHAR IntegralEx
ENCODING 244
SWIDTH 1013 0
DWIDTH 14 0
BBX 2 10 11 -1
BITMAP
c0
c0
c0
c0
c0
c0
c0
c0
c0
c0
ENDCHAR
STARTCHAR IntegralBot
ENCODING 245
SWIDTH 1013 0
DWIDTH 14 0
BBX 11 14 11 -1
BITMAP
0780
18e0
10e0
2060
6000
6000
6000
4000
c000
c000
c000
c000
c000
c000
ENDCHAR
STARTCHAR RParenTop
ENCODING 246
SWIDTH 421 0
DWIDTH 6 0
BBX 5 12 0 -1
BITMAP
80
40
20
30
30
10
18
18
18
18
18
18
ENDCHAR
STARTCHAR RParenEx
ENCODING 247
SWIDTH 421 0
DWIDTH 6 0
BBX 2 6 3 -1
BITMAP
c0
c0
c0
c0
c0
c0
ENDCHAR
STARTCHAR RParenBot
ENCODING 248
SWIDTH 421 0
DWIDTH 6 0
BBX 5 12 0 0
BITMAP
18
18
18
18
18
18
10
30
30
20
40
80
ENDCHAR
STARTCHAR RBracketTop
ENCODING 249
SWIDTH 389 0
DWIDTH 5 0
BBX 4 3 0 -1
BITMAP
f0
30
30
ENDCHAR
STARTCHAR RBracketEx
ENCODING 250
SWIDTH 389 0
DWIDTH 5 0
BBX 2 6 2 -1
BITMAP
c0
c0
c0
c0
c0
c0
ENDCHAR
STARTCHAR RBracketBot
ENCODING 251
SWIDTH 389 0
DWIDTH 5 0
BBX 4 2 0 0
BITMAP
30
f0
ENDCHAR
STARTCHAR RBraceTop
ENCODING 252
SWIDTH 597 0
DWIDTH 8 0
BBX 4 10 1 -1
BITMAP
80
40
60
20
30
30
30
30
30
30
ENDCHAR
STARTCHAR RBraceMid
ENCODING 253
SWIDTH 597 0
DWIDTH 8 0
BBX 5 11 3 -2
BITMAP
c0
c0
c0
60
30
18
30
60
c0
c0
c0
ENDCHAR
STARTCHAR RBraceBot
ENCODING 254
SWIDTH 597 0
DWIDTH 8 0
BBX 4 10 1 0
BITMAP
30
30
30
30
30
30
20
60
40
80
ENDCHAR
STARTCHAR Wolf
ENCODING 255
SWIDTH 965 0
DWIDTH 14 0
BBX 12 13 0 -3
BITMAP
0400
0480
0500
0700
0700
0900
0b80
1840
1020
3ff0
2400
6400
c400
ENDCHAR
ENDFONT
